<svg width="206" height="35" viewBox="0 0 206 35" fill="none" xmlns="http://www.w3.org/2000/svg">
<rect width="206" height="35" fill="#0B1D0F"/>
<g clip-path="url(#clip0_1852_15033)">
<path d="M34.8603 1.68291V33.3148C34.8597 33.4957 34.7869 33.6688 34.658 33.7964C34.5291 33.9237 34.355 33.9953 34.173 33.9953H29.0178C28.8358 33.9953 28.6612 33.9234 28.5324 33.7952C28.4037 33.6672 28.3313 33.4935 28.3313 33.3123C28.3317 33.1937 28.301 33.0769 28.2423 32.9739C28.1835 32.8705 28.0988 32.7846 27.9963 32.7239C27.8939 32.6632 27.7773 32.6302 27.6581 32.628C27.5389 32.6258 27.4212 32.6545 27.3165 32.7114C26.2683 33.2827 24.3587 33.9953 21.3906 33.9953C16.4604 33.991 10.5703 31.9857 10.5703 22.7397C10.5703 13.698 17.1535 11.2389 21.1214 11.2389C23.7527 11.2389 26.0659 12.2181 27.3261 12.8773C27.4308 12.9323 27.548 12.9594 27.6664 12.956C27.7848 12.9526 27.9002 12.9189 28.0016 12.858C28.1029 12.7971 28.1867 12.7111 28.2449 12.6085C28.3029 12.5058 28.3334 12.39 28.3331 12.2722V1.68291C28.3331 1.50179 28.4055 1.32809 28.5342 1.20002C28.6629 1.07195 28.8376 1 29.0196 1H34.1724C34.2626 0.999845 34.3522 1.01739 34.4355 1.05164C34.5188 1.08589 34.5947 1.13617 34.6587 1.1996C34.7227 1.26303 34.7732 1.33837 34.8079 1.4213C34.8425 1.50423 34.8603 1.59313 34.8603 1.68291ZM22.6752 17.0175C21.5626 17.0175 20.475 17.3457 19.5498 17.9607C18.6247 18.5756 17.9036 19.4496 17.4778 20.4722C17.052 21.4948 16.9406 22.62 17.1577 23.7056C17.3748 24.7912 17.9106 25.7883 18.6973 26.571C19.4841 27.3536 20.4865 27.8866 21.5777 28.1026C22.669 28.3185 23.8002 28.2077 24.8281 27.7841C25.8561 27.3606 26.7347 26.6432 27.3528 25.7229C27.971 24.8027 28.3009 23.7207 28.3009 22.6138C28.301 21.8789 28.1555 21.1511 27.8728 20.4721C27.5902 19.7931 27.1758 19.1761 26.6534 18.6565C26.131 18.1368 25.5107 17.7246 24.8282 17.4433C24.1456 17.1621 23.414 17.0174 22.6752 17.0175Z" fill="#59C16F"/>
<path d="M0.482335 11.2298H6.0471C6.17487 11.2298 6.29741 11.2803 6.38773 11.3701C6.47808 11.46 6.52883 11.5819 6.52883 11.709V33.5082C6.5282 33.6374 6.47611 33.7613 6.38392 33.8525C6.29176 33.9437 6.16701 33.9951 6.03696 33.9951H1.98247C1.45669 33.9951 0.952438 33.7871 0.580653 33.4173C0.208867 33.0474 0 32.5459 0 32.0229V13.4602V11.7072C0.000474098 11.5803 0.0515196 11.4588 0.141941 11.3693C0.232362 11.2798 0.354776 11.2296 0.482335 11.2298Z" fill="#59C16F"/>
<path d="M6.05107 7.49655H0.488085C0.36032 7.49655 0.237789 7.44605 0.147446 7.35617C0.0571021 7.26633 0.00634766 7.14441 0.00634766 7.01733V5.41755C0.00634766 4.24592 0.474206 3.12231 1.307 2.29386C2.13979 1.46542 3.2693 1 4.44705 1H6.05107C6.17881 1 6.30134 1.05049 6.3917 1.14036C6.48205 1.23023 6.5328 1.35213 6.5328 1.47923V7.01733C6.5328 7.14441 6.48205 7.26633 6.3917 7.35617C6.30134 7.44605 6.17881 7.49655 6.05107 7.49655Z" fill="#59C16F"/>
<path d="M56.5854 22.6405C56.5854 25.7338 54.0783 28.2481 50.9657 28.2481C47.8534 28.2481 45.3741 25.7338 45.3741 22.6405V11.6914C45.3741 11.5643 45.3235 11.4424 45.233 11.3525C45.1428 11.2626 45.0202 11.2122 44.8925 11.2122H39.3505C39.2226 11.2122 39.1002 11.2626 39.0097 11.3525C38.9195 11.4424 38.8687 11.5643 38.8687 11.6914V22.6577C38.8799 31.7072 44.7474 34 49.6639 34C53.5087 34 55.5951 32.7227 56.3042 32.1835C56.3301 32.1638 56.361 32.1517 56.3935 32.1486C56.4259 32.1455 56.4587 32.1514 56.4881 32.1657C56.5171 32.18 56.5417 32.2021 56.5589 32.2295C56.5764 32.2569 56.5854 32.2887 56.5854 32.3211C56.5854 32.7663 56.7633 33.1928 57.0795 33.5075C57.3956 33.8219 57.8248 33.9988 58.272 33.9988H62.6577C62.7863 33.9988 62.9095 33.948 63.0007 33.8577C63.0918 33.7671 63.143 33.6445 63.143 33.5165L63.1633 11.6854C63.1633 11.5595 63.113 11.4386 63.0235 11.3495C62.9339 11.2604 62.8125 11.2104 62.6858 11.2104H57.1385C57.0105 11.2104 56.8882 11.2609 56.7977 11.3507C56.7075 11.4406 56.6566 11.5625 56.6566 11.6896V13.1225L56.5854 22.6405Z" fill="#59C16F"/>
<path d="M94.4752 33.9955H97.3132C97.4034 33.9955 97.4926 33.9781 97.5759 33.9435C97.6593 33.9093 97.7351 33.8592 97.7988 33.7957C97.8628 33.7321 97.9133 33.6568 97.9477 33.574C97.9823 33.4912 98.0001 33.4021 98.0001 33.3125V30.4865C98.0001 30.1472 97.933 29.8113 97.8022 29.4978C97.6718 29.1844 97.4801 28.8997 97.2389 28.6599L80.4547 11.9678C80.2134 11.7279 79.9272 11.5376 79.612 11.4078C79.2971 11.278 78.9594 11.2112 78.6183 11.2112H75.7803C75.5984 11.2112 75.4239 11.2832 75.295 11.4113C75.1664 11.5393 75.094 11.713 75.094 11.8941V14.7178C75.094 15.0571 75.1611 15.393 75.2919 15.7065C75.4223 16.0199 75.614 16.3046 75.8549 16.5445L92.6382 33.2365C92.8791 33.4769 93.1656 33.6677 93.4809 33.7981C93.7958 33.9283 94.1338 33.9952 94.4752 33.9955Z" fill="white"/>
<path d="M81.9458 22.6014L86.5465 18.0253L92.6353 11.9682C92.8765 11.7275 93.1634 11.5366 93.4792 11.4064C93.7948 11.2763 94.1334 11.2095 94.4751 11.2098H97.3131C97.4947 11.2105 97.6686 11.2827 97.7968 11.4107C97.9251 11.5387 97.9969 11.712 97.9969 11.8927V14.7158C97.9972 15.0552 97.9301 15.3912 97.7993 15.7047C97.6689 16.0182 97.4775 16.3031 97.2366 16.543L91.1475 22.6002L86.5468 27.1769L81.9458 22.6014Z" fill="white"/>
<path d="M83.6965 30.0125L80.4553 33.2377C80.214 33.4777 79.9278 33.6682 79.6129 33.7983C79.2977 33.9282 78.96 33.9951 78.6189 33.9954H75.7803C75.5984 33.9954 75.4239 33.9235 75.295 33.7952C75.1664 33.6673 75.094 33.4936 75.094 33.3124V30.4881C75.094 30.1489 75.1611 29.813 75.2916 29.4995C75.422 29.1861 75.6133 28.9013 75.8546 28.6615L79.0958 25.4364L83.6965 30.0125Z" fill="#59C16F"/>
</g>
<line x1="108.5" y1="-2.18557e-08" x2="108.5" y2="35" stroke="white"/>
<path d="M126.017 12.46C126.017 9.8482 124.423 8.30953 122.304 8.30953C120.182 8.30953 118.592 9.8482 118.592 12.46C118.592 15.0679 120.182 16.6105 122.304 16.6105C124.423 16.6105 126.017 15.0718 126.017 12.46ZM124.545 12.46C124.545 14.2985 123.622 15.2967 122.304 15.2967C120.991 15.2967 120.063 14.2985 120.063 12.46C120.063 10.6215 120.991 9.62332 122.304 9.62332C123.622 9.62332 124.545 10.6215 124.545 12.46ZM128.766 12.9492C128.766 12.0734 129.294 11.5684 130.048 11.5684C130.786 11.5684 131.228 12.0536 131.228 12.8624V16.5H132.656V12.6415C132.66 11.1896 131.831 10.3611 130.581 10.3611C129.673 10.3611 129.05 10.7951 128.774 11.4697H128.703V10.44H127.338V16.5H128.766V12.9492ZM136.927 16.5H138.331V15.5452H138.414C138.639 15.9871 139.108 16.6065 140.15 16.6065C141.578 16.6065 142.647 15.4742 142.647 13.4779C142.647 11.4579 141.547 10.3611 140.146 10.3611C139.077 10.3611 138.631 11.0042 138.414 11.4421H138.355V8.42H136.927V16.5ZM138.327 13.47C138.327 12.2943 138.832 11.5329 139.751 11.5329C140.702 11.5329 141.192 12.3416 141.192 13.47C141.192 14.6063 140.694 15.4348 139.751 15.4348C138.84 15.4348 138.327 14.6457 138.327 13.47ZM146.544 16.6184C147.957 16.6184 148.927 15.9279 149.18 14.8745L147.846 14.7246C147.653 15.2375 147.18 15.5058 146.564 15.5058C145.641 15.5058 145.029 14.8982 145.017 13.8606H149.239V13.4227C149.239 11.2961 147.961 10.3611 146.469 10.3611C144.733 10.3611 143.601 11.6354 143.601 13.5055C143.601 15.4071 144.718 16.6184 146.544 16.6184ZM145.021 12.8979C145.065 12.1246 145.637 11.4737 146.489 11.4737C147.31 11.4737 147.862 12.0734 147.87 12.8979H145.021ZM151.875 12.9492C151.875 12.0734 152.42 11.5684 153.185 11.5684C153.935 11.5684 154.377 12.0457 154.377 12.8624V16.5H155.805V12.6415C155.805 11.1778 154.976 10.3611 153.718 10.3611C152.787 10.3611 152.195 10.7832 151.915 11.4697H151.844V8.42H150.447V16.5H151.875V12.9492ZM159.005 16.6223C159.955 16.6223 160.524 16.1765 160.784 15.6675H160.831V16.5H162.204V12.4442C162.204 10.8424 160.898 10.3611 159.742 10.3611C158.468 10.3611 157.49 10.9292 157.174 12.0339L158.508 12.2233C158.65 11.809 159.052 11.4539 159.75 11.4539C160.413 11.4539 160.776 11.7932 160.776 12.389V12.4127C160.776 12.823 160.346 12.8427 159.277 12.9571C158.101 13.0834 156.977 13.4345 156.977 14.7996C156.977 15.9911 157.849 16.6223 159.005 16.6223ZM159.375 15.5729C158.78 15.5729 158.354 15.3006 158.354 14.7759C158.354 14.2275 158.831 13.9987 159.47 13.9079C159.845 13.8566 160.595 13.762 160.78 13.612V14.3261C160.78 15.0008 160.236 15.5729 159.375 15.5729ZM165.069 8.42H163.64V16.5H165.069V8.42ZM169.607 10.44H168.348V9.96262C168.348 9.48918 168.545 9.22484 169.078 9.22484C169.303 9.22484 169.492 9.27613 169.611 9.31164L169.899 8.20695C169.713 8.14383 169.307 8.04125 168.814 8.04125C167.76 8.04125 166.92 8.64488 166.92 9.86793V10.44H166.024V11.5447H166.92V16.5H168.348V11.5447H169.607V10.44ZM176.124 16.6184C177.9 16.6184 179.028 15.3677 179.028 13.4937C179.028 11.6157 177.9 10.3611 176.124 10.3611C174.349 10.3611 173.221 11.6157 173.221 13.4937C173.221 15.3677 174.349 16.6184 176.124 16.6184ZM176.132 15.4742C175.15 15.4742 174.668 14.5984 174.668 13.4897C174.668 12.3811 175.15 11.4934 176.132 11.4934C177.099 11.4934 177.58 12.3811 177.58 13.4897C177.58 14.5984 177.099 15.4742 176.132 15.4742ZM183.31 10.44H182.051V9.96262C182.051 9.48918 182.248 9.22484 182.781 9.22484C183.006 9.22484 183.195 9.27613 183.314 9.31164L183.602 8.20695C183.416 8.14383 183.01 8.04125 182.517 8.04125C181.463 8.04125 180.623 8.64488 180.623 9.86793V10.44H179.727V11.5447H180.623V16.5H182.051V11.5447H183.31V10.44ZM120.02 19.42H118.343L120.864 23.46L118.312 27.5H120L121.799 24.5607H121.862L123.662 27.5H125.358L122.829 23.46L125.319 19.42H123.65L121.862 22.379H121.799L120.02 19.42ZM127.691 19.42H126.014L128.535 23.46L125.982 27.5H127.671L129.47 24.5607H129.533L131.332 27.5H133.029L130.5 23.46L132.989 19.42H131.32L129.533 22.379H129.47L127.691 19.42ZM135.361 19.42H133.685L136.206 23.46L133.653 27.5H135.342L137.141 24.5607H137.204L139.003 27.5H140.699L138.17 23.46L140.66 19.42H138.991L137.204 22.379H137.141L135.361 19.42ZM143.032 19.42H141.355L143.876 23.46L141.324 27.5H143.012L144.811 24.5607H144.874L146.674 27.5H148.37L145.841 23.46L148.331 19.42H146.662L144.874 22.379H144.811L143.032 19.42ZM154.816 27.6184C156.339 27.6184 157.309 26.7149 157.412 25.4287H156.047C155.924 26.0797 155.455 26.4545 154.828 26.4545C153.936 26.4545 153.36 25.7088 153.36 24.47C153.36 23.247 153.948 22.5131 154.828 22.5131C155.514 22.5131 155.936 22.955 156.047 23.5389H157.412C157.313 22.2251 156.287 21.3611 154.808 21.3611C153.032 21.3611 151.912 22.6433 151.912 24.4937C151.912 26.3282 153.005 27.6184 154.816 27.6184ZM161.228 27.6184C163.003 27.6184 164.132 26.3677 164.132 24.4937C164.132 22.6157 163.003 21.3611 161.228 21.3611C159.452 21.3611 158.324 22.6157 158.324 24.4937C158.324 26.3677 159.452 27.6184 161.228 27.6184ZM161.236 26.4742C160.253 26.4742 159.772 25.5984 159.772 24.4897C159.772 23.3811 160.253 22.4934 161.236 22.4934C162.202 22.4934 162.684 23.3811 162.684 24.4897C162.684 25.5984 162.202 26.4742 161.236 26.4742ZM165.344 27.5H166.772V23.8151C166.772 23.0694 167.269 22.5644 167.885 22.5644C168.488 22.5644 168.902 22.9708 168.902 23.5941V27.5H170.303V23.7204C170.303 23.0379 170.709 22.5644 171.4 22.5644C171.976 22.5644 172.433 22.9037 172.433 23.6533V27.5H173.866V23.4324C173.866 22.0791 173.084 21.3611 171.972 21.3611C171.092 21.3611 170.421 21.7951 170.153 22.4697H170.09C169.857 21.7832 169.269 21.3611 168.453 21.3611C167.64 21.3611 167.032 21.7793 166.78 22.4697H166.709V21.44H165.344V27.5ZM175.315 29.7725H176.743V26.5452H176.802C177.027 26.9871 177.496 27.6065 178.538 27.6065C179.966 27.6065 181.035 26.4742 181.035 24.4779C181.035 22.4579 179.935 21.3611 178.534 21.3611C177.465 21.3611 177.019 22.0042 176.802 22.4421H176.719V21.44H175.315V29.7725ZM176.715 24.47C176.715 23.2943 177.22 22.5329 178.139 22.5329C179.09 22.5329 179.579 23.3416 179.579 24.47C179.579 25.6063 179.082 26.4348 178.139 26.4348C177.228 26.4348 176.715 25.6457 176.715 24.47ZM184.002 27.6223C184.953 27.6223 185.521 27.1765 185.781 26.6675H185.829V27.5H187.202V23.4442C187.202 21.8424 185.896 21.3611 184.74 21.3611C183.466 21.3611 182.487 21.9292 182.171 23.0339L183.505 23.2233C183.647 22.809 184.049 22.4539 184.748 22.4539C185.411 22.4539 185.774 22.7932 185.774 23.389V23.4127C185.774 23.823 185.344 23.8427 184.274 23.9571C183.099 24.0834 181.974 24.4345 181.974 25.7996C181.974 26.9911 182.846 27.6223 184.002 27.6223ZM184.373 26.5729C183.777 26.5729 183.351 26.3006 183.351 25.7759C183.351 25.2275 183.829 24.9987 184.468 24.9079C184.842 24.8566 185.592 24.762 185.778 24.612V25.3261C185.778 26.0008 185.233 26.5729 184.373 26.5729ZM190.066 23.9492C190.066 23.0734 190.595 22.5684 191.348 22.5684C192.086 22.5684 192.528 23.0536 192.528 23.8624V27.5H193.956V23.6415C193.96 22.1896 193.132 21.3611 191.881 21.3611C190.973 21.3611 190.35 21.7951 190.074 22.4697H190.003V21.44H188.638V27.5H190.066V23.9492ZM196.079 29.7725C197.191 29.7725 197.834 29.2004 198.178 28.2338L200.612 21.4479L199.085 21.44L197.684 26.0166H197.621L196.225 21.44H194.71L196.907 27.6262L196.785 27.9537C196.521 28.6441 196.102 28.6915 195.479 28.51L195.148 29.6226C195.341 29.7015 195.688 29.7725 196.079 29.7725Z" fill="white"/>
<defs>
<clipPath id="clip0_1852_15033">
<rect width="98" height="33" fill="white" transform="translate(0 1)"/>
</clipPath>
</defs>
</svg>
